<?xml version="1.0" encoding="UTF-8" standalone="no"?>
<!DOCTYPE svg PUBLIC "-//W3C//DTD SVG 1.1//EN" "http://www.w3.org/Graphics/SVG/1.1/DTD/svg11.dtd">
<!-- Created with Vectornator (http://vectornator.io/) -->
<svg stroke-miterlimit="10" style="fill-rule:nonzero;clip-rule:evenodd;stroke-linecap:round;stroke-linejoin:round;" version="1.1" viewBox="0 0 812 375" xml:space="preserve" xmlns="http://www.w3.org/2000/svg" xmlns:xlink="http://www.w3.org/1999/xlink">
<defs>
<linearGradient gradientTransform="matrix(0.878689 0 0 0.878689 -335.656 -96.4063)" gradientUnits="userSpaceOnUse" id="LinearGradient" x1="1166.12" x2="1279.88" y1="493.065" y2="326.984">
<stop offset="0" stop-color="#000000"/>
<stop offset="1" stop-color="#7858fc"/>
</linearGradient>
<linearGradient gradientTransform="matrix(0.878689 0 0 0.878689 -335.656 -96.4063)" gradientUnits="userSpaceOnUse" id="LinearGradient_2" x1="1105.45" x2="1164.86" y1="434.421" y2="325.227">
<stop offset="0" stop-color="#000000"/>
<stop offset="1" stop-color="#7858fc"/>
</linearGradient>
<linearGradient gradientTransform="matrix(0.745547 0 0 0.745547 -187.951 -61.0948)" gradientUnits="userSpaceOnUse" id="LinearGradient_3" x1="1022.12" x2="1123.49" y1="387.045" y2="265.217">
<stop offset="0" stop-color="#000000"/>
<stop offset="1" stop-color="#7858fc"/>
</linearGradient>
<linearGradient gradientTransform="matrix(0.637309 0 0 0.878689 -67.8757 -96.4063)" gradientUnits="userSpaceOnUse" id="LinearGradient_4" x1="1074.27" x2="1123.49" y1="428.403" y2="343.977">
<stop offset="0" stop-color="#000000"/>
<stop offset="1" stop-color="#7858fc"/>
</linearGradient>
<linearGradient gradientTransform="matrix(0.878689 0 0 0.878689 -335.656 -96.4063)" gradientUnits="userSpaceOnUse" id="LinearGradient_5" x1="980.978" x2="1084.02" y1="450.207" y2="345.149">
<stop offset="0" stop-color="#000000"/>
<stop offset="1" stop-color="#7858fc"/>
</linearGradient>
<linearGradient gradientTransform="matrix(0.878689 0 0 0.878689 -335.656 -96.4063)" gradientUnits="userSpaceOnUse" id="LinearGradient_6" x1="882.111" x2="975.469" y1="435.052" y2="321.417">
<stop offset="0" stop-color="#000000"/>
<stop offset="1" stop-color="#7858fc"/>
</linearGradient>
<linearGradient gradientTransform="matrix(0.878689 0 0 0.878689 -335.656 -96.4063)" gradientUnits="userSpaceOnUse" id="LinearGradient_7" x1="735.165" x2="831.162" y1="325.471" y2="325.471">
<stop offset="0" stop-color="#000000"/>
<stop offset="1" stop-color="#3f3f3f"/>
</linearGradient>
<linearGradient gradientTransform="matrix(0.878689 0 0 0.878689 -335.656 -96.4063)" gradientUnits="userSpaceOnUse" id="LinearGradient_8" x1="661.69" x2="758.086" y1="396.621" y2="284.278">
<stop offset="0" stop-color="#000000"/>
<stop offset="1" stop-color="#343434"/>
</linearGradient>
<linearGradient gradientTransform="matrix(0.878689 0 0 0.878689 -335.656 -96.4063)" gradientUnits="userSpaceOnUse" id="LinearGradient_9" x1="569.221" x2="708.803" y1="284.692" y2="397.257">
<stop offset="0" stop-color="#000000"/>
<stop offset="1" stop-color="#646464"/>
</linearGradient>
<linearGradient gradientTransform="matrix(0.878689 0 0 0.878689 -335.656 -96.4063)" gradientUnits="userSpaceOnUse" id="LinearGradient_10" x1="477.246" x2="591.954" y1="284.037" y2="389.417">
<stop offset="0.00531804" stop-color="#000000"/>
<stop offset="1" stop-color="#474747"/>
</linearGradient>
<radialGradient cx="466.517" cy="325.227" gradientTransform="matrix(0.878689 0 0 0.878689 -335.656 -96.4063)" gradientUnits="userSpaceOnUse" id="RadialGradient" r="58.3008">
<stop offset="0" stop-color="#000000"/>
<stop offset="0.989901" stop-color="#212121"/>
</radialGradient>
</defs>
<g id="Layer-1">
<path d="M788.961 126.297L788.961 252.608L765.191 252.608L765.191 239.651C761.702 245.2 757.726 249.233 753.264 251.75C748.802 254.267 743.253 255.526 736.617 255.526C725.691 255.526 716.495 251.107 709.029 242.268C701.564 233.43 697.831 222.089 697.831 208.245C697.831 192.284 701.507 179.727 708.858 170.574C716.209 161.421 726.034 156.845 738.333 156.845C743.997 156.845 749.031 158.089 753.436 160.578C757.84 163.066 761.416 166.513 764.162 170.918L764.162 126.297L788.961 126.297ZM723.059 206.443C723.059 215.081 724.775 221.974 728.208 227.123C731.583 232.329 736.731 234.932 743.653 234.932C750.575 234.932 755.838 232.357 759.442 227.209C763.046 222.06 764.848 215.396 764.848 207.215C764.848 195.774 761.959 187.593 756.181 182.674C752.635 179.699 748.516 178.211 743.825 178.211C736.674 178.211 731.425 180.914 728.079 186.32C724.732 191.726 723.059 198.434 723.059 206.443Z" fill="url(#LinearGradient)" fill-rule="nonzero" opacity="1" stroke="none"/>
<path d="M675.651 126.125L675.675 126.125C682.422 126.125 687.891 131.594 687.891 138.341L687.891 240.393C687.891 247.139 682.422 252.608 675.675 252.608L675.651 252.608C668.904 252.608 663.435 247.139 663.435 240.393L663.435 138.341C663.435 131.594 668.904 126.125 675.651 126.125Z" fill="url(#LinearGradient_2)" fill-rule="nonzero" opacity="1" stroke="none"/>
<path d="M649.66 136.569L649.66 136.704C649.66 141.955 645.404 146.211 640.153 146.211L638.125 146.211C632.875 146.211 628.618 141.955 628.618 136.704L628.618 136.569C628.618 131.319 632.875 127.063 638.125 127.063L640.153 127.063C645.404 127.063 649.66 131.319 649.66 136.569Z" fill="url(#LinearGradient_3)" fill-rule="nonzero" opacity="1" stroke="none"/>
<path d="M648.132 165.301L648.132 246.383C648.132 249.821 646.111 252.608 643.618 252.608L634.661 252.608C632.167 252.608 630.146 249.821 630.146 246.383L630.146 165.301C630.146 161.863 632.167 159.076 634.661 159.076L643.618 159.076C646.111 159.076 648.132 161.863 648.132 165.301Z" fill="url(#LinearGradient_4)" fill-rule="nonzero" opacity="1" stroke="none"/>
<path d="M593.089 239.394C592.86 239.68 592.288 240.538 591.372 241.968C590.457 243.398 589.37 244.657 588.112 245.744C584.279 249.176 580.575 251.521 576.999 252.78C573.424 254.038 569.234 254.668 564.428 254.668C550.584 254.668 541.26 249.691 536.454 239.737C533.766 234.245 532.421 226.15 532.421 215.453L532.421 165.347C532.421 161.883 535.229 159.076 538.692 159.076L551.207 159.076C554.67 159.076 557.478 161.883 557.478 165.347L557.478 215.453C557.478 220.773 558.107 224.777 559.366 227.466C561.597 232.214 565.973 234.588 572.494 234.588C580.846 234.588 586.567 231.213 589.656 224.463C591.258 220.802 592.059 215.968 592.059 209.961L592.059 165.347C592.059 161.883 594.866 159.076 598.33 159.076L610.587 159.076C614.05 159.076 616.858 161.883 616.858 165.347L616.858 246.338C616.858 249.801 614.05 252.608 610.587 252.608L599.359 252.608C595.896 252.608 593.089 249.801 593.089 246.338L593.089 239.394Z" fill="url(#LinearGradient_5)" fill-rule="nonzero" opacity="1" stroke="none"/>
<path d="M487.583 246.129C480.604 250.419 472.023 252.565 461.84 252.565C445.078 252.565 431.349 246.758 420.651 235.145C409.496 223.475 403.919 207.515 403.919 187.264C403.919 166.784 409.553 150.366 420.823 138.009C432.093 125.652 446.995 119.474 465.53 119.474C481.605 119.474 494.519 123.55 504.273 131.702C514.026 139.854 519.618 150.022 521.048 162.207L495.048 162.207C493.046 153.569 488.155 147.534 480.375 144.102C476.027 142.214 471.193 141.27 465.873 141.27C455.69 141.27 447.324 145.117 440.774 152.811C434.224 160.505 430.949 172.075 430.949 187.521C430.949 203.081 434.495 214.093 441.589 220.558C448.682 227.022 456.749 230.254 465.787 230.254C474.654 230.254 481.919 227.694 487.583 222.574C493.246 217.454 496.736 210.747 498.052 202.452L474.662 202.452C471.419 202.452 468.79 199.823 468.79 196.581L468.79 187.214C468.79 183.971 471.419 181.343 474.662 181.343L515.606 181.343C518.849 181.343 521.477 183.971 521.477 187.214L521.477 243.347C521.477 246.59 518.849 249.218 515.606 249.218L509.843 249.218C506.601 249.218 503.536 246.626 502.997 243.429L501.312 233.429C496.221 239.436 491.644 243.669 487.583 246.129Z" fill="url(#LinearGradient_6)" fill-rule="nonzero" opacity="1" stroke="none"/>
<path d="M394.677 197.69L394.677 248.142C394.677 250.609 392.677 252.608 390.21 252.608L374.172 252.608C371.706 252.608 369.706 250.609 369.706 248.142L369.706 195.717C369.706 190.682 368.848 186.621 367.132 183.532C364.901 179.184 360.667 177.01 354.432 177.01C347.968 177.01 343.062 179.17 339.716 183.489C336.369 187.808 334.696 193.972 334.696 201.981L334.696 248.142C334.696 250.609 332.696 252.608 330.229 252.608L314.792 252.608C312.326 252.608 310.326 250.609 310.326 248.142L310.326 131.021C310.326 128.554 312.326 126.554 314.792 126.554L330.229 126.554C332.696 126.554 334.696 128.554 334.696 131.021L334.696 171.261C338.243 165.826 342.347 162.036 347.009 159.891C351.672 157.746 356.577 156.673 361.726 156.673C367.504 156.673 372.752 157.674 377.472 159.677C382.191 161.679 386.067 164.739 389.099 168.858C391.673 172.348 393.246 175.938 393.818 179.627C394.391 183.317 394.677 189.338 394.677 197.69Z" fill="url(#LinearGradient_7)" fill-rule="nonzero" opacity="1" stroke="none"/>
<path d="M330.798 189.253L305.741 189.253C305.284 185.763 304.111 182.617 302.223 179.814C299.477 176.038 295.215 174.15 289.438 174.15C281.2 174.15 275.565 178.24 272.533 186.421C270.931 190.769 270.13 196.546 270.13 203.754C270.13 210.619 270.931 216.14 272.533 220.316C275.451 228.096 280.942 231.986 289.009 231.986C294.729 231.986 298.791 230.441 301.193 227.352C303.596 224.263 305.055 220.258 305.57 215.339L330.54 215.339C329.968 222.776 327.28 229.812 322.474 236.448C314.809 247.145 303.453 252.494 288.408 252.494C273.363 252.494 262.293 248.032 255.2 239.108C248.106 230.184 244.559 218.6 244.559 204.355C244.559 188.28 248.478 175.781 256.315 166.856C264.152 157.932 274.964 153.47 288.751 153.47C300.478 153.47 310.075 156.102 317.54 161.365C325.006 166.628 329.425 175.924 330.798 189.253Z" fill="url(#LinearGradient_8)" fill-rule="nonzero" opacity="1" stroke="none"/>
<path d="M229.253 237.324C229.024 237.61 228.452 238.468 227.537 239.898C226.621 241.328 225.534 242.587 224.276 243.674C220.443 247.106 216.739 249.452 213.163 250.71C209.588 251.969 205.398 252.598 200.592 252.598C186.748 252.598 177.424 247.621 172.619 237.667C169.93 232.175 168.585 224.081 168.585 213.383L168.585 157.006L193.642 157.006L193.642 213.383C193.642 218.703 194.271 222.708 195.53 225.396C197.761 230.145 202.137 232.519 208.658 232.519C217.011 232.519 222.731 229.143 225.82 222.393C227.422 218.732 228.223 213.898 228.223 207.891L228.223 157.006L253.022 157.006L253.022 250.539L229.253 250.539L229.253 237.324Z" fill="url(#LinearGradient_9)" fill-rule="nonzero" opacity="1" stroke="none"/>
<path d="M167.35 167.722C175.244 177.619 179.192 189.318 179.192 202.819C179.192 216.548 175.244 228.29 167.35 238.043C159.455 247.797 147.471 252.674 131.396 252.674C115.321 252.674 103.336 247.797 95.4416 238.043C87.5471 228.29 83.5999 216.548 83.5999 202.819C83.5999 189.318 87.5471 177.619 95.4416 167.722C103.336 157.826 115.321 152.877 131.396 152.877C147.471 152.877 159.455 157.826 167.35 167.722ZM131.31 173.557C124.159 173.557 118.653 176.089 114.792 181.152C110.93 186.214 108.999 193.437 108.999 202.819C108.999 212.2 110.93 219.437 114.792 224.528C118.653 229.62 124.159 232.165 131.31 232.165C138.461 232.165 143.953 229.62 147.785 224.528C151.618 219.437 153.535 212.2 153.535 202.819C153.535 193.437 151.618 186.214 147.785 181.152C143.953 176.089 138.461 173.557 131.31 173.557Z" fill="url(#LinearGradient_10)" fill-rule="nonzero" opacity="1" stroke="none"/>
<path d="M82.728 252.608L65.9787 252.608C63.2583 252.608 61.0529 250.403 61.0529 247.682L61.0529 153.447C61.0529 150.727 58.8475 148.521 56.1271 148.521L27.9651 148.521C25.2447 148.521 23.0393 146.316 23.0393 143.596L23.0393 131.051C23.0393 128.331 25.2447 126.125 27.9651 126.125L120.57 126.125C123.29 126.125 125.496 128.331 125.496 131.051L125.496 143.596C125.496 146.316 123.29 148.521 120.57 148.521L92.5796 148.521C89.8592 148.521 87.6538 150.727 87.6538 153.447L87.6538 247.682C87.6538 250.403 85.4485 252.608 82.728 252.608Z" fill="url(#RadialGradient)" fill-rule="nonzero" opacity="1" stroke="none"/>
</g>
</svg>
